<svg width="17" height="15" fill="none" xmlns="http://www.w3.org/2000/svg"><path d="M1.842.392a2.418 2.418 0 00-.146.17C.892 1.542-.068 3.046.004 4.498c.122 2.432 3.695 5.664 4.787 6.597 1.093.933 4.863 3.97 7.51 3.904.441-.01.909-.095 1.39-.254 1.108-.365 2.11-1.06 2.746-1.571 0 0 .137-.107.19-.159.132-.131.238-.324.321-.588.043-.135.052-.277.052-.372a1.41 1.41 0 00-.087-.499c-.104-.256-.224-.439-.366-.562-.106-.09-2.492-1.807-2.507-1.817l-.018-.01a1.694 1.694 0 00-1.524-.228c-.231.076-.44.202-.6.361l-.82.807a.804.804 0 01-.27.165.79.79 0 01-.115.012L5.19 5.586a.09.09 0 01-.023-.03c.002-.008.006-.014.007-.02.02-.037.115-.156.234-.274l.812-.807c.43-.425.536-1.084.263-1.599-.098-.183-.231-.32-.293-.385l-.032-.036A282.658 282.658 0 004.042.317C3.819.127 3.467.023 2.967 0c-.278-.01-.627.064-.829.18-.13.075-.227.144-.296.212zm1.516.583c.112.105 1.941 1.945 2.037 2.041l.067.075a.803.803 0 01.13.165.499.499 0 01-.1.581l-.812.808c-.095.094-.326.336-.418.537a.896.896 0 00-.09.386c.01.259.13.5.34.682l5.56 4.746c.211.18.519.238.914.171.306-.052.637-.264.815-.44l.822-.807a.54.54 0 01.209-.125.669.669 0 01.427.006.694.694 0 01.165.09c.02.015.037.026.052.034.229.163 2.28 1.645 2.392 1.73 0 .001.049.051.117.22.01.023.025.092.025.18a.439.439 0 01-.013.118.825.825 0 01-.094.22c-.032.03-.098.08-.11.09-.58.466-1.474 1.089-2.437 1.406a3.709 3.709 0 01-1.08.2c-1.809.046-4.8-1.944-6.81-3.66C3.453 8.712 1.075 6.118.992 4.457.933 3.259 1.78 1.97 2.478 1.12l.027-.033a.885.885 0 01.058-.071c.025-.022.062-.043.09-.06A.795.795 0 012.919.91c.293.013.428.062.439.065z" fill="#fff"/></svg>