<svg width="50" height="50" fill="none" xmlns="http://www.w3.org/2000/svg"><g clip-path="url(#clip0)"><path d="M45.605 0H4.395A4.4 4.4 0 000 4.395v41.21A4.4 4.4 0 004.395 50h41.21A4.4 4.4 0 0050 45.605V4.395A4.4 4.4 0 0045.605 0zm1.465 45.605c0 .808-.657 1.465-1.465 1.465H4.395a1.467 1.467 0 01-1.465-1.465V4.395c0-.808.657-1.465 1.465-1.465h41.21c.808 0 1.465.657 1.465 1.465v41.21z" fill="url(#paint0_linear)"/><path d="M25 7.91C15.577 7.91 7.91 15.577 7.91 25S15.577 42.09 25 42.09 42.09 34.423 42.09 25 34.423 7.91 25 7.91zm0 31.25c-7.808 0-14.16-6.352-14.16-14.16S17.192 10.84 25 10.84 39.16 17.192 39.16 25 32.808 39.16 25 39.16z" fill="url(#paint1_linear)"/><path d="M18.262 21.094A3.91 3.91 0 0014.355 25a3.91 3.91 0 003.907 3.906A3.91 3.91 0 0022.168 25a3.91 3.91 0 00-3.906-3.906zm0 4.883a.978.978 0 010-1.954.978.978 0 010 1.954z" fill="url(#paint2_linear)"/><path d="M31.738 21.094A3.91 3.91 0 0027.832 25a3.91 3.91 0 003.906 3.906A3.91 3.91 0 0035.645 25a3.91 3.91 0 00-3.907-3.906zm0 4.883a.978.978 0 010-1.954.978.978 0 010 1.954z" fill="url(#paint3_linear)"/></g><defs><linearGradient id="paint0_linear" x1="0" y1="-200.004" x2="50.184" y2="-199.958" gradientUnits="userSpaceOnUse"><stop stop-color="#6B0061"/><stop offset="1" stop-color="#C400B0"/></linearGradient><linearGradient id="paint1_linear" x1="7.91" y1="-128.811" x2="42.215" y2="-128.78" gradientUnits="userSpaceOnUse"><stop stop-color="#6B0061"/><stop offset="1" stop-color="#C400B0"/></linearGradient><linearGradient id="paint2_linear" x1="14.355" y1="-10.157" x2="22.197" y2="-10.15" gradientUnits="userSpaceOnUse"><stop stop-color="#6B0061"/><stop offset="1" stop-color="#C400B0"/></linearGradient><linearGradient id="paint3_linear" x1="27.832" y1="-10.157" x2="35.673" y2="-10.15" gradientUnits="userSpaceOnUse"><stop stop-color="#6B0061"/><stop offset="1" stop-color="#C400B0"/></linearGradient><clipPath id="clip0"><path fill="#fff" d="M0 0h50v50H0z"/></clipPath></defs></svg>