<svg width="50" height="50" fill="none" xmlns="http://www.w3.org/2000/svg"><g clip-path="url(#clip0)"><path d="M40.385 0H9.615a4.332 4.332 0 00-4.327 4.327v41.346A4.332 4.332 0 009.615 50h30.77a4.332 4.332 0 004.327-4.327V4.327A4.332 4.332 0 0040.385 0zm1.442 45.673c0 .795-.647 1.442-1.442 1.442H9.615a1.444 1.444 0 01-1.442-1.442V4.327c0-.795.647-1.442 1.442-1.442h30.77c.795 0 1.442.647 1.442 1.442v41.346z" fill="url(#paint0_linear)"/><path d="M37.5 5.77h-25c-.797 0-1.442.645-1.442 1.442v33.173c0 .796.646 1.442 1.442 1.442h25c.797 0 1.442-.646 1.442-1.442V7.212c0-.797-.645-1.443-1.442-1.443zm-1.442 33.172H13.942V8.654h22.116v30.288z" fill="url(#paint1_linear)"/><path d="M26.435 44.377a1.371 1.371 0 00-.236-.659 1.526 1.526 0 00-.179-.218 1.474 1.474 0 00-.22-.18 1.407 1.407 0 00-.66-.236 1.47 1.47 0 00-.56.055 1.724 1.724 0 00-.26.109 1.392 1.392 0 00-.591.592 1.603 1.603 0 00-.11.26 1.625 1.625 0 00-.055.277 1.412 1.412 0 00.021.424 1.744 1.744 0 00.143.397 1.404 1.404 0 00.72.653 1.607 1.607 0 00.27.083 1.412 1.412 0 00.701-.035 1.674 1.674 0 00.26-.109 1.38 1.38 0 00.436-.356 1.498 1.498 0 00.265-.496 1.358 1.358 0 00.055-.277 1.411 1.411 0 000-.284z" fill="url(#paint2_linear)"/></g><defs><linearGradient id="paint0_linear" x1="5.288" y1="-200.004" x2="44.856" y2="-199.975" gradientUnits="userSpaceOnUse"><stop stop-color="#6B0061"/><stop offset="1" stop-color="#C400B0"/></linearGradient><linearGradient id="paint1_linear" x1="11.058" y1="-138.464" x2="39.045" y2="-138.444" gradientUnits="userSpaceOnUse"><stop stop-color="#6B0061"/><stop offset="1" stop-color="#C400B0"/></linearGradient><linearGradient id="paint2_linear" x1="23.557" y1="31.537" x2="26.453" y2="31.54" gradientUnits="userSpaceOnUse"><stop stop-color="#6B0061"/><stop offset="1" stop-color="#C400B0"/></linearGradient><clipPath id="clip0"><path fill="#fff" d="M0 0h50v50H0z"/></clipPath></defs></svg>