<svg width="50" height="50" fill="none" xmlns="http://www.w3.org/2000/svg"><g clip-path="url(#clip0)"><path d="M25.114.016c.808 0 1.463.655 1.463 1.464v47.04a1.464 1.464 0 01-2.927 0V1.48c0-.809.655-1.464 1.464-1.464z" fill="url(#paint0_linear)"/><path d="M.26 26.44l3.357-9.321a7.076 7.076 0 012.791-4.014 5.837 5.837 0 01-1.79-4.208 5.862 5.862 0 015.857-5.856 5.862 5.862 0 015.855 5.856c0 1.65-.687 3.142-1.79 4.208a7.076 7.076 0 012.792 4.014l3.356 9.321a4.393 4.393 0 01-2.894 5.701v10.426a4.397 4.397 0 01-4.392 4.392 4.374 4.374 0 01-2.927-1.121 4.374 4.374 0 01-2.928 1.12 4.397 4.397 0 01-4.392-4.391V32.141a4.393 4.393 0 01-2.894-5.7zM10.475 5.97a2.931 2.931 0 00-2.927 2.927 2.931 2.931 0 002.927 2.928 2.931 2.931 0 002.928-2.928 2.931 2.931 0 00-2.928-2.928zM4.393 29.391h.226c.808 0 1.464.655 1.464 1.464v11.71c0 .808.656 1.465 1.464 1.465.807 0 1.463-.657 1.463-1.464v-8.784a1.464 1.464 0 012.928 0v8.784c0 .807.657 1.464 1.464 1.464.807 0 1.464-.657 1.464-1.464v-11.71c0-.809.655-1.464 1.464-1.464h.226a1.465 1.465 0 001.377-1.96c-3.62-10.053-3.396-9.421-3.422-9.527a4.155 4.155 0 00-4.037-3.152 4.155 4.155 0 00-4.037 3.151c-.026.106.196-.522-3.422 9.528a1.465 1.465 0 001.378 1.96z" fill="url(#paint1_linear)"/><path d="M35.392 12.8a5.831 5.831 0 01-1.495-3.903 5.862 5.862 0 015.856-5.856 5.862 5.862 0 015.855 5.856 5.831 5.831 0 01-1.495 3.903C47.589 14.441 50 17.98 50 22.072v5.856a4.4 4.4 0 01-2.928 4.14v10.499a4.397 4.397 0 01-4.392 4.392 4.375 4.375 0 01-2.927-1.121 4.375 4.375 0 01-2.928 1.12 4.397 4.397 0 01-4.392-4.391V32.069a4.4 4.4 0 01-2.928-4.141v-5.856c0-4.092 2.411-7.63 5.887-9.272zm4.36-6.83a2.931 2.931 0 00-2.927 2.927 2.931 2.931 0 002.928 2.928 2.931 2.931 0 002.928-2.928 2.931 2.931 0 00-2.928-2.928zm-7.319 21.958c0 .807.657 1.464 1.464 1.464.809 0 1.464.655 1.464 1.464v11.71c0 .808.657 1.465 1.464 1.465.807 0 1.464-.657 1.464-1.464v-8.784a1.464 1.464 0 112.927 0v8.784c0 .807.657 1.464 1.464 1.464.807 0 1.464-.657 1.464-1.464V30.856c0-.809.656-1.464 1.464-1.464.807 0 1.464-.657 1.464-1.464v-5.856c0-4.036-3.284-7.32-7.32-7.32-4.036 0-7.32 3.284-7.32 7.32v5.856h.001z" fill="url(#paint2_linear)"/></g><defs><linearGradient id="paint0_linear" x1="26.578" y1="-199.86" x2="23.639" y2="-199.86" gradientUnits="userSpaceOnUse"><stop stop-color="#6B0061"/><stop offset="1" stop-color="#C400B0"/></linearGradient><linearGradient id="paint1_linear" x1="20.949" y1="-172.631" x2="-.077" y2="-172.622" gradientUnits="userSpaceOnUse"><stop stop-color="#6B0061"/><stop offset="1" stop-color="#C400B0"/></linearGradient><linearGradient id="paint2_linear" x1="50" y1="-172.63" x2="29.43" y2="-172.622" gradientUnits="userSpaceOnUse"><stop stop-color="#6B0061"/><stop offset="1" stop-color="#C400B0"/></linearGradient><clipPath id="clip0"><path fill="#fff" transform="matrix(-1 0 0 1 50 0)" d="M0 0h50v50H0z"/></clipPath></defs></svg>