<svg width="50" height="50" fill="none" xmlns="http://www.w3.org/2000/svg"><g clip-path="url(#clip0)"><path d="M25 32.676a4.59 4.59 0 01-4.584-4.585A4.59 4.59 0 0125 23.507a4.59 4.59 0 014.585 4.584A4.59 4.59 0 0125 32.676zm0-6.243a1.66 1.66 0 00-1.658 1.658A1.66 1.66 0 0025 29.75a1.66 1.66 0 001.659-1.659A1.66 1.66 0 0025 26.433z" fill="url(#paint0_linear)"/><path d="M32.946 21.706c-.375 0-.75-.142-1.035-.428-3.81-3.81-10.01-3.81-13.821 0a1.463 1.463 0 11-2.07-2.07c4.952-4.95 13.009-4.95 17.96 0a1.463 1.463 0 01-1.034 2.498z" fill="url(#paint1_linear)"/><path d="M11.758 16.41a1.463 1.463 0 01-1.035-2.498A20.058 20.058 0 0125 7.998c5.393 0 10.464 2.1 14.277 5.914a1.463 1.463 0 11-2.069 2.07A17.152 17.152 0 0025 10.923a17.152 17.152 0 00-12.207 5.057c-.286.286-.66.429-1.035.429z" fill="url(#paint2_linear)"/><path d="M5.457 49.96a1.463 1.463 0 01-1.463-1.464V37.46c0-.808.655-1.463 1.463-1.463H9.93a1.463 1.463 0 010 2.926H6.92v9.574c0 .808-.655 1.463-1.463 1.463z" fill="url(#paint3_linear)"/><path d="M9.575 44.336H5.457a1.463 1.463 0 010-2.926h4.118a1.463 1.463 0 010 2.926z" fill="url(#paint4_linear)"/><path d="M22.404 50a1.46 1.46 0 01-1.099-.496l-4.67-5.307a1.463 1.463 0 012.196-1.934l4.671 5.307A1.463 1.463 0 0122.404 50z" fill="url(#paint5_linear)"/><path d="M16.392 50a1.463 1.463 0 01-1.463-1.463V37.418a1.463 1.463 0 012.926 0v11.119c0 .808-.655 1.463-1.463 1.463z" fill="url(#paint6_linear)"/><path d="M16.416 44.673a1.463 1.463 0 01-1.463-1.454 558.56 558.56 0 01-.013-3.165l-.007-2.63a1.464 1.464 0 011.463-1.469h2.954c2.49 0 4.517 1.953 4.517 4.353 0 2.4-2.026 4.353-4.517 4.353-.806 0-2.904.012-2.925.012h-.009zm1.447-5.792l.003 1.168.005 1.69a379.86 379.86 0 011.48-.005c.861 0 1.59-.653 1.59-1.426 0-.773-.729-1.427-1.59-1.427h-1.488z" fill="url(#paint7_linear)"/><path d="M33.522 49.95h-4.643a1.463 1.463 0 01-1.463-1.464V37.47c0-.808.655-1.463 1.463-1.463h4.643a1.463 1.463 0 010 2.926h-3.18v8.091h3.18a1.463 1.463 0 110 2.926z" fill="url(#paint8_linear)"/><path d="M33.18 44.44h-4.3a1.463 1.463 0 110-2.925h4.3a1.463 1.463 0 110 2.926z" fill="url(#paint9_linear)"/><path d="M44.543 49.95h-4.642a1.463 1.463 0 01-1.463-1.464V37.47c0-.808.655-1.463 1.463-1.463h4.642a1.463 1.463 0 010 2.926h-3.179v8.091h3.18a1.463 1.463 0 010 2.926z" fill="url(#paint10_linear)"/><path d="M44.201 44.44h-4.3a1.463 1.463 0 110-2.925h4.3a1.463 1.463 0 110 2.926z" fill="url(#paint11_linear)"/><path d="M43.76 10.794c-.374 0-.748-.142-1.034-.428C37.928 5.568 31.633 2.926 25 2.926c-6.633 0-12.928 2.642-17.725 7.44a1.463 1.463 0 11-2.07-2.07C10.557 2.947 17.586 0 25 0c7.415 0 14.445 2.947 19.795 8.297a1.463 1.463 0 01-1.035 2.497z" fill="url(#paint12_linear)"/></g><defs><linearGradient id="paint0_linear" x1="20.416" y1="-13.168" x2="29.619" y2="-13.16" gradientUnits="userSpaceOnUse"><stop stop-color="#6B0061"/><stop offset="1" stop-color="#C400B0"/></linearGradient><linearGradient id="paint1_linear" x1="15.592" y1="-9.351" x2="34.478" y2="-9.298" gradientUnits="userSpaceOnUse"><stop stop-color="#6B0061"/><stop offset="1" stop-color="#C400B0"/></linearGradient><linearGradient id="paint2_linear" x1="10.295" y1="-25.648" x2="39.814" y2="-25.553" gradientUnits="userSpaceOnUse"><stop stop-color="#6B0061"/><stop offset="1" stop-color="#C400B0"/></linearGradient><linearGradient id="paint3_linear" x1="3.994" y1="-19.859" x2="11.42" y2="-19.856" gradientUnits="userSpaceOnUse"><stop stop-color="#6B0061"/><stop offset="1" stop-color="#C400B0"/></linearGradient><linearGradient id="paint4_linear" x1="3.994" y1="29.705" x2="11.064" y2="29.721" gradientUnits="userSpaceOnUse"><stop stop-color="#6B0061"/><stop offset="1" stop-color="#C400B0"/></linearGradient><linearGradient id="paint5_linear" x1="16.27" y1="8.834" x2="23.895" y2="8.841" gradientUnits="userSpaceOnUse"><stop stop-color="#6B0061"/><stop offset="1" stop-color="#C400B0"/></linearGradient><linearGradient id="paint6_linear" x1="14.929" y1="-20.226" x2="17.866" y2="-20.225" gradientUnits="userSpaceOnUse"><stop stop-color="#6B0061"/><stop offset="1" stop-color="#C400B0"/></linearGradient><linearGradient id="paint7_linear" x1="14.933" y1="1.081" x2="23.899" y2="1.09" gradientUnits="userSpaceOnUse"><stop stop-color="#6B0061"/><stop offset="1" stop-color="#C400B0"/></linearGradient><linearGradient id="paint8_linear" x1="27.416" y1="-19.769" x2="35.012" y2="-19.765" gradientUnits="userSpaceOnUse"><stop stop-color="#6B0061"/><stop offset="1" stop-color="#C400B0"/></linearGradient><linearGradient id="paint9_linear" x1="27.416" y1="29.81" x2="34.669" y2="29.826" gradientUnits="userSpaceOnUse"><stop stop-color="#6B0061"/><stop offset="1" stop-color="#C400B0"/></linearGradient><linearGradient id="paint10_linear" x1="38.438" y1="-19.769" x2="46.034" y2="-19.765" gradientUnits="userSpaceOnUse"><stop stop-color="#6B0061"/><stop offset="1" stop-color="#C400B0"/></linearGradient><linearGradient id="paint11_linear" x1="38.438" y1="29.81" x2="45.691" y2="29.826" gradientUnits="userSpaceOnUse"><stop stop-color="#6B0061"/><stop offset="1" stop-color="#C400B0"/></linearGradient><linearGradient id="paint12_linear" x1="4.777" y1="-43.178" x2="45.371" y2="-43.039" gradientUnits="userSpaceOnUse"><stop stop-color="#6B0061"/><stop offset="1" stop-color="#C400B0"/></linearGradient><clipPath id="clip0"><path fill="#fff" d="M0 0h50v50H0z"/></clipPath></defs></svg>